<svg xmlns="http://www.w3.org/2000/svg" height="48" viewBox="0 -960 960 960" width="48" fill="white"><path d="M184.348-101.174q-33.776 0-58.475-24.699-24.699-24.699-24.699-58.475v-591.304q0-34.009 24.699-58.874 24.699-24.865 58.475-24.865h256.956q16.81 0 28.949 12.138 12.138 12.138 12.138 29.772 0 17.635-12.138 29.732-12.139 12.097-28.949 12.097H184.348v591.304h256.956q16.81 0 28.949 12.201 12.138 12.202 12.138 29.377 0 17.967-12.138 29.782-12.139 11.814-28.949 11.814H184.348Zm515.956-337.174H397.957q-18.577 0-30.332-12.385-11.755-12.386-11.755-29.561 0-17.967 11.755-29.597 11.755-11.631 30.332-11.631h300.347l-71.522-71.521q-12.13-12.499-11.63-29.719.5-17.219 12.63-29.207 12.131-12.553 29.478-11.77 17.347.782 30.305 11.913L831-508.391q10.565 12.699 10.565 29.676 0 16.976-10.565 28.106l-142.435 143q-12.495 12.131-29.291 11.631t-29.883-12.065q-11.739-12.829-12.263-30.17-.523-17.341 13.22-29.613l69.956-70.522Z"/></svg>