<svg xmlns="http://www.w3.org/2000/svg" xmlns:xlink="http://www.w3.org/1999/xlink" viewBox="0,0,256,256" width="90px" height="90px"><g fill="#eaeaea" fill-rule="nonzero" stroke="none" stroke-width="1" stroke-linecap="butt" stroke-linejoin="miter" stroke-miterlimit="10" stroke-dasharray="" stroke-dashoffset="0" font-family="none" font-weight="none" font-size="none" text-anchor="none" style="mix-blend-mode: normal"><g transform="scale(8.53333,8.53333)"><path d="M6,4c-1.09306,0 -2,0.90694 -2,2v8.83203c-0.01785,0.10799 -0.01785,0.21818 0,0.32617v4.67383c-0.01785,0.10799 -0.01785,0.21818 0,0.32617v3.8418c0,1.09306 0.90694,2 2,2h18c1.09306,0 2,-0.90694 2,-2v-3.83203c0.01785,-0.10799 0.01785,-0.21818 0,-0.32617v-4.67383c0.01785,-0.10799 0.01785,-0.21818 0,-0.32617v-8.8418c0,-1.09306 -0.90694,-2 -2,-2zM6,11h18v3h-18zM6,16h18v3h-18zM6,21h18v3h-18z"></path></g></g></svg>